<?xml version="1.0" standalone="no"?>
<!DOCTYPE svg PUBLIC "-//W3C//DTD SVG 20010904//EN"
 "http://www.w3.org/TR/2001/REC-SVG-20010904/DTD/svg10.dtd">
<svg version="1.0" xmlns="http://www.w3.org/2000/svg"
 width="1151.000000pt" height="1151.000000pt" viewBox="0 0 1151.000000 1151.000000"
 preserveAspectRatio="xMidYMid meet">
<metadata>
Created by potrace 1.14, written by Peter Selinger 2001-2017
</metadata>
<g transform="translate(0.000000,1151.000000) scale(0.100000,-0.100000)"
fill="#000000" stroke="none">
<path d="M2618 10438 c-18 -6 -41 -33 -71 -81 -52 -84 -372 -609 -396 -649
-54 -91 -150 -249 -311 -513 -180 -296 -428 -704 -623 -1025 -55 -91 -110
-181 -122 -200 -13 -19 -75 -120 -138 -225 -63 -104 -164 -272 -224 -372
l-111 -182 10 -44 c11 -54 10 -55 -117 -264 -49 -82 -91 -154 -93 -160 -2 -7
-8 -13 -13 -13 -5 0 -9 -4 -9 -9 0 -5 -23 -46 -50 -90 -48 -78 -50 -82 -40
-123 6 -24 13 -51 15 -62 2 -10 11 -42 19 -70 16 -55 77 -285 80 -301 1 -5 12
-48 25 -95 l23 -86 126 -69 c70 -39 136 -75 147 -82 11 -7 27 -15 35 -19 8 -4
65 -35 125 -69 61 -34 137 -77 170 -95 33 -18 114 -63 180 -100 66 -37 147
-82 180 -100 33 -18 157 -87 275 -153 118 -66 229 -127 245 -136 17 -9 115
-64 218 -121 104 -58 214 -119 245 -136 31 -17 74 -41 96 -53 42 -24 55 -20
79 25 6 13 83 140 169 283 148 242 159 258 187 259 16 0 38 5 48 11 10 5 68
92 129 193 61 101 177 292 258 424 l147 242 42 -22 c23 -11 44 -24 45 -28 2
-5 7 -8 11 -8 8 0 199 -105 433 -236 43 -24 82 -44 88 -44 5 0 10 -4 10 -10 0
-5 4 -10 8 -10 7 0 162 -84 472 -257 30 -17 219 -122 420 -233 201 -111 385
-214 410 -228 175 -97 1662 -923 1690 -939 19 -11 45 -25 57 -32 27 -14 43 20
-155 -309 -77 -127 -139 -240 -137 -250 2 -9 6 -29 10 -45 5 -19 2 -35 -11
-55 -10 -15 -87 -141 -171 -281 -125 -208 -152 -258 -147 -280 4 -14 23 -89
44 -166 21 -77 57 -213 80 -301 40 -153 44 -162 74 -177 17 -9 58 -31 91 -50
125 -70 702 -391 750 -417 28 -15 113 -62 190 -105 139 -78 434 -242 530 -295
28 -15 148 -82 268 -149 119 -66 219 -121 222 -121 7 0 57 79 191 300 168 278
167 278 184 277 51 -3 73 16 125 105 6 9 60 99 120 198 61 99 124 204 141 233
17 28 102 169 189 312 87 143 195 321 239 395 45 74 84 137 88 138 5 2 8 8 8
13 0 5 12 28 27 52 15 23 32 51 39 62 11 20 278 461 439 725 45 74 122 201
171 282 49 81 170 280 268 443 124 205 179 304 178 323 -1 15 -29 128 -62 252
-65 238 -68 250 -74 278 -36 153 -41 162 -123 205 -92 50 -192 105 -228 127
-16 9 -57 32 -90 50 -220 121 -400 222 -414 234 -8 6 -15 9 -15 7 -1 -3 -12 2
-26 11 -14 9 -194 109 -400 223 -439 243 -437 242 -537 298 -88 49 -176 98
-243 135 -25 13 -49 28 -55 32 -15 12 -47 15 -76 7 -19 -5 -40 -28 -72 -79
-88 -143 -297 -490 -297 -494 0 -3 -5 -10 -11 -17 -5 -7 -123 -199 -260 -427
-138 -228 -256 -420 -262 -427 -9 -9 -49 9 -172 78 -88 50 -182 103 -210 118
-45 25 -446 248 -535 298 -71 40 -316 177 -360 201 -25 14 -142 79 -260 145
-118 66 -233 130 -255 142 -22 13 -103 58 -180 100 -77 43 -144 81 -150 85 -5
4 -46 27 -90 50 -76 41 -100 54 -177 98 -29 17 -311 174 -443 247 -27 15 -85
48 -128 72 -42 24 -99 55 -125 70 -26 14 -60 33 -77 43 -16 10 -50 29 -75 42
-152 83 -456 253 -463 259 -5 3 16 47 46 95 30 49 131 215 224 369 94 154 214
352 268 440 54 88 104 173 110 189 13 30 5 66 -91 421 -14 50 -34 128 -46 175
-11 47 -26 96 -33 110 -10 18 -120 84 -392 234 -618 342 -815 451 -875 484
-143 79 -175 97 -203 114 -16 10 -37 21 -45 25 -8 4 -96 51 -195 106 -99 55
-205 113 -235 129 -30 17 -77 43 -105 58 -73 42 -96 48 -127 38z"/>
</g>
</svg>
